<?xml version="1.0" encoding="UTF-8"?>
<svg id="_レイヤー_2" data-name="レイヤー 2" xmlns="http://www.w3.org/2000/svg" viewBox="0 0 117.35 117.35">
  <defs>
    <style>
      .cls-1 {
        fill: none;
      }

      .cls-1, .cls-2 {
        stroke-width: 0px;
      }

      .cls-2 {
        fill: #e50012;
      }
    </style>
  </defs>
  <g id="_レイヤー_1-2" data-name="レイヤー 1">
    <g>
      <rect class="cls-1" width="117.35" height="117.35"/>
      <path class="cls-2" d="m102.9,89.64L61.5,17.93c-.71-1.22-1.76-1.83-2.82-1.83s-2.12.61-2.82,1.83L14.45,89.64c-.38.66-.54,1.31-.54,1.92,0,1.66,1.3,2.96,3.36,2.96h10.78c2,0,3.82-1.24,4.55-3.11l17.1-43.75c.72-1.83,2.18-1.52,2.1.44l-1.89,42.44c-.11,2.38,1.41,3.97,3.8,3.97h46.37c2.06,0,3.36-1.31,3.36-2.96,0-.61-.16-1.27-.54-1.92Z"/>
    </g>
  </g>
</svg>